<?xml version="1.0" standalone="no"?>
<!DOCTYPE svg PUBLIC "-//W3C//DTD SVG 20010904//EN"
 "http://www.w3.org/TR/2001/REC-SVG-20010904/DTD/svg10.dtd">
<svg version="1.0" xmlns="http://www.w3.org/2000/svg"
 width="561.000000pt" height="561.000000pt" viewBox="0 0 561.000000 561.000000"
 preserveAspectRatio="xMidYMid meet">
<metadata>
Created by potrace 1.11, written by Peter Selinger 2001-2013
</metadata>
<g transform="translate(0.000000,561.000000) scale(0.100000,-0.100000)"
fill="#000000" stroke="none">
<path d="M3235 4890 c-55 -15 -147 -41 -205 -58 -110 -32 -365 -102 -384 -107
-6 -1 -18 -5 -26 -8 -33 -13 -195 -57 -212 -57 -10 0 -35 -16 -55 -36 -70 -67
-105 -89 -142 -90 -84 -3 -428 -17 -456 -19 -16 -1 -97 -23 -180 -48 -82 -26
-181 -57 -219 -68 -42 -13 -90 -37 -125 -64 -94 -71 -204 -151 -246 -179 -22
-14 -60 -41 -85 -59 -25 -18 -85 -61 -133 -96 -49 -35 -86 -68 -84 -75 4 -13
102 -14 312 -2 77 4 163 8 190 10 35 1 98 -12 214 -46 90 -26 167 -48 172 -50
4 -2 -28 -77 -72 -168 -45 -91 -111 -226 -147 -300 -37 -74 -67 -137 -68 -140
0 -3 -34 -75 -76 -160 l-76 -155 -2 -130 c-1 -71 -3 -150 -5 -175 -2 -25 -6
-137 -10 -250 -3 -113 -8 -232 -10 -265 -3 -33 -7 -148 -11 -255 -3 -107 -7
-217 -9 -245 -2 -27 -4 -71 -4 -98 -1 -40 -5 -49 -23 -56 -162 -62 -506 -191
-523 -195 -15 -4 -64 -25 -125 -52 -44 -20 -83 -54 -190 -166 -74 -77 -154
-159 -177 -181 -45 -42 -61 -94 -25 -83 9 3 44 8 77 11 33 4 67 8 75 10 8 2
42 7 75 10 33 3 71 8 85 11 14 2 52 6 85 9 103 9 159 16 175 20 8 2 46 7 84
10 38 3 72 8 75 9 3 2 40 7 80 10 41 4 77 9 80 11 4 1 38 6 76 9 39 3 81 8 94
11 13 2 49 7 79 10 30 3 58 8 63 11 5 3 17 7 26 9 10 2 27 7 38 9 15 4 29 -6
56 -42 32 -43 43 -50 95 -61 33 -7 73 -17 89 -22 51 -14 548 -140 575 -145 14
-3 34 -8 45 -11 11 -4 25 -8 30 -9 6 -1 55 -14 110 -29 55 -15 124 -30 153
-32 45 -4 52 -2 52 13 0 16 -42 97 -158 304 -76 135 -93 166 -98 180 -3 8 -20
25 -37 38 -31 22 -155 110 -187 132 -8 6 -53 37 -100 70 -47 33 -113 78 -147
101 -35 23 -63 44 -63 47 0 5 142 220 163 247 4 5 52 75 105 155 54 80 133
197 177 260 43 63 135 198 204 300 69 102 165 244 213 315 49 72 105 154 124
183 20 28 40 52 44 52 5 0 12 -10 16 -22 4 -13 22 -57 41 -98 19 -41 39 -85
44 -97 5 -13 15 -23 23 -23 13 0 32 35 28 51 -1 4 8 54 19 110 11 57 22 118
25 136 6 45 31 163 35 167 2 2 36 21 74 43 110 62 120 68 125 73 3 3 28 16 55
30 28 14 52 27 55 30 6 7 90 55 140 81 34 17 139 78 170 99 8 6 38 22 67 38
29 15 97 53 152 84 55 32 111 59 123 62 20 4 282 67 403 97 22 5 49 12 60 14
11 2 74 18 140 35 181 46 225 55 238 52 4 -1 143 28 309 64 315 70 318 71 354
135 11 19 22 36 25 39 12 10 20 48 11 54 -6 3 -54 8 -108 12 -55 3 -102 9
-106 13 -5 4 2 7 15 8 12 0 42 3 67 8 25 4 59 9 75 11 17 2 41 6 55 9 14 3 36
7 49 10 13 2 25 6 26 7 9 14 45 90 45 96 0 8 -50 29 -87 37 -10 2 -61 16 -113
31 -52 14 -99 27 -105 28 -5 2 -35 10 -65 19 -62 18 -314 86 -345 94 -11 3
-31 7 -45 10 -34 7 -101 38 -180 83 -79 46 -174 97 -296 161 l-90 47 -460 0
-459 0 -100 -28z m1990 -660 c3 -5 1 -10 -4 -10 -6 0 -11 5 -11 10 0 6 2 10 4
10 3 0 8 -4 11 -10z"/>
</g>
</svg>
